<?xml version="1.0" encoding="UTF-8" standalone="no" ?>
<!DOCTYPE svg PUBLIC "-//W3C//DTD SVG 1.1//EN" "http://www.w3.org/Graphics/SVG/1.1/DTD/svg11.dtd">
<svg xmlns="http://www.w3.org/2000/svg" xmlns:xlink="http://www.w3.org/1999/xlink" version="1.1" width="1080" height="1080" viewBox="0 0 1080 1080" xml:space="preserve">
<desc>Created with Fabric.js 4.2.0</desc>
<defs>
</defs>
<rect x="0" y="0" width="100%" height="100%" fill="transparent"></rect>
<g transform="matrix(1 0 0 1 540 540)" id="bd8b8b80-2b8b-4fea-8cff-242ec8e6247a"  >
<rect style="stroke: none; stroke-width: 1; stroke-dasharray: none; stroke-linecap: butt; stroke-dashoffset: 0; stroke-linejoin: miter; stroke-miterlimit: 4; fill: rgb(255,255,255); fill-opacity: 0; fill-rule: nonzero; opacity: 1;" vector-effect="non-scaling-stroke"  x="-540" y="-540" rx="0" ry="0" width="1080" height="1080" />
</g>
<g transform="matrix(Infinity NaN NaN Infinity 0 0)" id="4b180a33-371c-4d7b-a9cb-727551e15afb"  >
</g>
<g transform="matrix(61.23 0 0 61.23 671.85 611.01)" id="ca3ccf25-6909-46bf-98cb-60bab9638847"  >
<path style="stroke: rgb(0,0,0); stroke-width: 0; stroke-dasharray: none; stroke-linecap: butt; stroke-dashoffset: 0; stroke-linejoin: miter; stroke-miterlimit: 4; fill: rgb(255,255,255); fill-rule: nonzero; opacity: 1;" vector-effect="non-scaling-stroke"  transform=" translate(-8, -8)" d="M 1.646 4.646 C 1.7398042630101669 4.551958299312365 1.8671727391417587 4.499106216314582 2 4.499106216314582 C 2.1328272608582415 4.499106216314582 2.260195736989833 4.551958299312365 2.354 4.646 L 8 10.293 L 13.646 4.645999999999999 C 13.841508801440101 4.450491198559898 14.1584911985599 4.450491198559898 14.354000000000001 4.645999999999999 C 14.549508801440101 4.8415088014401 14.549508801440101 5.158491198559898 14.354000000000001 5.353999999999999 L 8.354000000000001 11.354 C 8.260195736989834 11.448041700687634 8.132827260858242 11.500893783685418 8 11.500893783685418 C 7.867172739141759 11.500893783685418 7.739804263010168 11.448041700687634 7.646000000000001 11.354 L 1.6460000000000008 5.353999999999999 C 1.551958299312366 5.260195736989832 1.499106216314582 5.132827260858241 1.499106216314582 4.999999999999999 C 1.499106216314582 4.867172739141758 1.551958299312366 4.739804263010166 1.6460000000000008 4.645999999999999 z" stroke-linecap="round" />
</g>
</svg>